<svg xmlns="http://www.w3.org/2000/svg" viewBox="0 0 24 24" fill="none" stroke="currentColor" stroke-width="2" stroke-linecap="round" stroke-linejoin="round"><path d="M9 11a3 3 0 1 0 6 0a3 3 0 1 0 -6 0"></path><path d="M16.2 13c.2 -.4 .8 -.6 1.8 -.6c2 0 3 1.3 3 3c0 1.7 -1 3 -3 3c-1 0 -1.7 -.2 -2 -.6"></path><path d="M15 6c0 1 1 2 2 2c1.4 0 2 .5 2 2"></path><path d="M5 10c0 -1.5 .5 -2 2 -2s2 .5 2 2v7c0 1.5 -.5 2 -2 2s-2 -.5 -2 -2v-7z"></path><path d="M7 3v2"></path><path d="M7 15v2"></path></svg>
